<?xml version="1.0" standalone="no"?>
<svg viewBox="0 0 200 200" xmlns="http://www.w3.org/2000/svg">
  <path fill="#FF0066" d="M41.1,-60.7C51.1,-57.5,55.5,-42.5,61,-28.4C66.5,-14.4,73,-1.5,68.1,7.5C63.3,16.5,47,21.6,37.8,33.3C28.5,45.1,26.3,63.6,16.9,74C7.4,84.3,-9.3,86.5,-23.7,81.7C-38.1,77,-50.1,65.4,-61,52.8C-71.9,40.3,-81.7,26.7,-84.3,11.8C-86.9,-3.1,-82.3,-19.3,-71.2,-27.9C-60.1,-36.6,-42.6,-37.8,-29.6,-39.6C-16.7,-41.4,-8.3,-43.8,3.6,-49.4C15.6,-55.1,31.1,-63.8,41.1,-60.7Z" transform="translate(100 100)" />
</svg>
